<?xml version="1.0" encoding="UTF-8"?>
<svg xmlns="http://www.w3.org/2000/svg" width="201" height="19" viewBox="0 0 201 19" fill="none">
  <path d="M191.922 8.10402C192.645 3.49237 195.212 0.823427 196.426 0.0413562C197.639 0.823427 200.175 3.49237 200.898 8.10402C201.63 12.7723 198.235 15.3943 196.428 16.1384C194.621 15.3943 191.189 12.7723 191.922 8.10402Z" fill="#326238"></path>
  <path d="M196.229 0.26386C196.229 0.190997 196.287 0.13193 196.36 0.13193H196.492C196.564 0.13193 196.623 0.190997 196.623 0.26386V18.4702H196.229V0.26386Z" fill="#326238"></path>
  <path d="M6.7057 13.6298V8.61488H21.0055C21.5786 8.61488 22.0562 8.52891 22.4383 8.35697C22.8395 8.16592 23.0401 7.77428 23.0401 7.18204C23.0401 6.57069 22.8395 6.17905 22.4383 6.0071C22.0562 5.83516 21.5786 5.74919 21.0055 5.74919H7.16421V18.3582H0V0.0178223H19.8879C21.3207 0.0178223 22.658 0.122898 23.8998 0.333049C25.1607 0.524094 26.2592 0.877529 27.1953 1.39335C28.1315 1.90918 28.867 2.63515 29.4019 3.57127C29.9369 4.5074 30.2043 5.71099 30.2043 7.18204C30.2043 8.65309 29.9369 9.81847 29.4019 10.6782C28.867 11.5379 28.1315 12.1779 27.1953 12.5982C26.2592 13.0185 25.1607 13.2955 23.8998 13.4292C22.658 13.563 21.3207 13.6298 19.8879 13.6298H6.7057Z" fill="#DC9F96"></path>
  <path d="M40.9437 0.0178223V12.9134H57.6506V18.3582H33.7795V0.0178223H40.9437Z" fill="#DC9F96"></path>
  <path d="M65.5129 15.5785V11.28H85.1142V15.5785H65.5129ZM59.0938 18.3582L71.3876 0.0178223H79.3542L91.7626 18.3582H83.8819L73.2503 1.93783H77.5201L66.9744 18.3582H59.0938Z" fill="#DC9F96"></path>
  <path d="M122.802 12.7415L120.137 14.2603V0.0178223H127.302V18.3582H120.137L98.5587 5.86382L101.224 4.31635V18.3582H94.0596V0.0178223H101.224L122.802 12.7415Z" fill="#DC9F96"></path>
  <path d="M130.162 0.0178223H159.965V5.46262H130.162V0.0178223ZM141.481 5.09009H148.645V18.3582H141.481V5.09009Z" fill="#DC9F96"></path>
  <path d="M191.613 0.0178223L180.007 13.6871V18.3582H172.842V13.6871L161.236 0.0178223H169.69L179.118 11.9104H173.817L183.159 0.0178223H191.613Z" fill="#DC9F96"></path>
</svg>
